<svg xmlns="http://www.w3.org/2000/svg" fill="currentColor" viewBox="0 0 36 36"><path d="M16 15h2v2h-2zM10 7h2v2h-2zM12 9h2v2h-2zM8 9h2v2H8zM18 17h2v2h-2zM16 19h2v2h-2zM18 25h2v2h-2zM16 27h2v2h-2zM16 23h2v2h-2z" style="fill-opacity:.5;stroke-width:1.00157;stroke-linecap:square;stroke-linejoin:round"></path><path d="M22 17h6v2h-6zM22 25h6v2h-6zM16 9h12v2H16z" style="stroke-width:1.00157;stroke-linecap:square;stroke-linejoin:round"></path><path d="M10 11h2v6h4v2h-4v6h4v2h-6z" style="fill-opacity:.5;stroke:none;stroke-width:1px;stroke-linecap:butt;stroke-linejoin:miter;stroke-opacity:1"></path></svg>