<svg xmlns="http://www.w3.org/2000/svg" fill="currentColor" viewBox="0 0 36 36"><path d="M22 14h2v2h-2zM20 12h2v2h-2zM18 10h2v2h-2zM12 14h2v2h-2zM14 12h2v2h-2zM16 14h2v2h-2zM14 16h2v2h-2zM10 18h2v2h-2zM12 20h2v2h-2zM14 22h2v2h-2zM16 24h2v2h-2zM24 16h2v2h-2zM26 18h2v2h-2zM24 20h2v2h-2zM22 22h2v2h-2zM20 24h2v2h-2zM18 26h2v2h-2z" style="stroke-width:1.00157;stroke-linecap:square;stroke-linejoin:round"></path><path d="M10 18v-8h8V8H8v10z" style="fill-opacity:1;stroke:none;stroke-width:1px;stroke-linecap:butt;stroke-linejoin:miter;stroke-opacity:1"></path></svg>