<svg xmlns="http://www.w3.org/2000/svg" fill="currentColor" viewBox="0 0 36 36"><path d="M20 16h2v2h-2zM18 18h2v2h-2zM20 20h2v2h-2zM22 18h2v2h-2zM28 12h2v2h-2zM26 10h2v2h-2zM24 22h2v4h-2zM12 26h12v2H12zM12 8h12v2H12zM10 10h2v16h-2z" style="stroke-width:1.00157;stroke-linecap:square;stroke-linejoin:round"></path><path d="M18 20v2h2v2h-4v-4zM24 12h2v2h2v2h-2v2h-2v-2h-2v-2h2z" style="fill-opacity:1;stroke:none;stroke-width:1px;stroke-linecap:butt;stroke-linejoin:miter;stroke-opacity:1"></path></svg>