<svg xmlns="http://www.w3.org/2000/svg" fill="currentColor" viewBox="0 0 36 36"><path d="M12 10h2v2h-2zM10 12h2v2h-2zM10 14h2v2h-2zM12 18h2v2h-2zM12 26h2v2h-2zM24 10h2v2h-2zM24 20h2v2h-2z" style="stroke-width:1.00157;stroke-linecap:square;stroke-linejoin:round"></path><path d="M16 14h2v-2h4v2h2v4h-2v2h-4v-2h-2z" style="fill-opacity:.3;stroke:none;stroke-width:1px;stroke-linecap:butt;stroke-linejoin:miter;stroke-opacity:1"></path><path d="M14 8h10v2H14ZM28 12h-2v8h2zM24 22H12v-2h-2v2H8v2h2v2h2v-2h12z" style="fill-opacity:1;stroke:none;stroke-width:1px;stroke-linecap:butt;stroke-linejoin:miter;stroke-opacity:1"></path></svg>