<svg xmlns="http://www.w3.org/2000/svg" fill="currentColor" viewBox="0 0 36 36"><path d="M13 17h2v2h-2zM21 17h2v2h-2zM17 17h2v2h-2zM17 21h2v2h-2z" style="fill-opacity:.35;stroke-width:1.00157;stroke-linecap:square;stroke-linejoin:round"></path><path d="M21 21h2v2h-2z" style="stroke-width:1.00157;stroke-linecap:square;stroke-linejoin:round"></path><path d="M13 21h2v2h-2z" style="fill-opacity:.35;stroke-width:1.00157;stroke-linecap:square;stroke-linejoin:round"></path><path d="M11 25h14v2H11z" style="stroke-width:1.00157;stroke-linecap:square;stroke-linejoin:round"></path><path d="M9 25V13h2v-2h2V9h2v2h2V9h2v2h2V9h2v2h2v2h2v12h-2V15H11v10z" style="fill-opacity:1;stroke:none;stroke-width:1px;stroke-linecap:butt;stroke-linejoin:miter;stroke-opacity:1"></path></svg>