<svg xmlns="http://www.w3.org/2000/svg" fill="currentColor" viewBox="0 0 36 36"><path d="M12 12h2v2h-2zM28 22h2v2h-2zM26 20h2v2h-2zM6 12h2v2H6zM8 14h2v2H8zM22 12h2v2h-2zM12 22h2v2h-2zM28 12h2v2h-2zM26 14h2v2h-2zM22 22h2v2h-2zM8 20h2v2H8zM6 22h2v2H6z" style="stroke-width:1.00157;stroke-linecap:square;stroke-linejoin:round"></path><path d="M8 10h4v2H8zM24 10h4v2h-4zM14 8h2v4h-2zM10 16h2v4h-2zM24 16h2v4h-2zM20 24h2v4h-2zM14 24h2v4h-2zM14 16h2v4h-2zM20 16h2v4h-2zM20 8h2v4h-2zM16 6h4v2h-4zM16 28h4v2h-4zM8 24h4v2H8zM24 24h4v2h-4zM16 20h4v2h-4zM16 14h4v2h-4z" style="fill-opacity:1;stroke-width:1.00157;stroke-linecap:square;stroke-linejoin:round"></path></svg>