<svg xmlns="http://www.w3.org/2000/svg" fill="currentColor" viewBox="0 0 36 36"><path d="M11 9h2v2h-2zM21 7h2v2h-2zM23 9h2v2h-2zM9 11h2v2H9zM11 13h2v2h-2zM13 15h2v2h-2zM9 23h2v2H9zM11 25h2v2h-2zM13 27h2v2h-2zM25 11h2v2h-2zM23 13h2v2h-2zM13 21h2v2h-2zM11 19h2v2h-2zM9 17h2v2H9zM25 17h2v2h-2zM23 19h2v2h-2zM25 23h2v2h-2zM23 25h2v2h-2zM17 5h4v2h-4zM13 7h4v2h-4zM15 17h4v2h-4zM19 15h4v2h-4z" style="stroke-width:1.00157;stroke-linecap:square;stroke-linejoin:round"></path><path d="M19-23h4v2h-4z" style="stroke-width:1.00157;stroke-linecap:square;stroke-linejoin:round" transform="scale(1 -1)"></path><path d="M15 23h4v2h-4zM15 29h4v2h-4zM19 27h4v2h-4z" style="stroke-width:1.00157;stroke-linecap:square;stroke-linejoin:round"></path></svg>